<svg role="img" viewBox="0 0 24 24" xmlns="http://www.w3.org/2000/svg"><title>PsychonautWiki</title>
  <!-- Outer shell: thick, smooth, organic eyelids wrapping into a rounded mass -->
  <path d="M12 1 C5.4 1, 1 5.4, 1 12 C1 18.6, 5.4 23, 12 23 C18.6 23, 23 18.6, 23 12 C23 5.4, 18.6 1, 12 1 Z" fill="currentColor"/>
  <!-- Almond-shaped eye opening, horizontal, facing right -->
  <path d="M7 12 C9.5 8.5, 16 8, 21 12 C16 16, 9.5 15.5, 7 12 Z" fill="#fff"/>
  <!-- Solid iris/pupil near right edge -->
  <circle cx="16.2" cy="12" r="2.5" fill="currentColor"/>
  <!-- Upper lashes: short, sharp, clustered near outer corner -->
  <polygon points="17.5,7.2 18,5.5 18.5,7.4" fill="currentColor"/>
  <polygon points="19.5,8 20.2,6.5 20.7,8.4" fill="currentColor"/>
  <polygon points="21.2,9.5 22,8.2 22.2,10" fill="currentColor"/>
  <!-- Lower lash: single small one near outer corner -->
  <polygon points="19.5,16 20.2,17.5 20.7,15.6" fill="currentColor"/>
</svg>
